<svg width="216" height="82" viewBox="0 0 216 82" fill="none" xmlns="http://www.w3.org/2000/svg">
<path d="M127.469 7.21102L98.7578 80.294C112.956 81.3661 118.595 80.4596 121.13 73.9551L149.841 0.872189C135.217 -0.147974 129.994 1.04769 127.469 7.21102Z" fill="#FD6262" stroke="#FD6262"/>
<path d="M159.91 7.16317L131.199 80.2461C145.397 81.3182 151.037 80.4118 153.571 73.9073L182.283 0.824337C167.658 -0.195826 162.436 0.999834 159.91 7.16317Z" fill="#FD6262" stroke="#FD6262"/>
<path d="M192.723 7.16317L164.012 80.2461C178.209 81.3182 183.849 80.4118 186.384 73.9073L215.095 0.824337C200.47 -0.195826 195.248 0.999834 192.723 7.16317Z" fill="#FD6262" stroke="#FD6262"/>
<path d="M37.2383 1.24512C32.4264 1.25905 29.7322 5.18738 24.9336 19.5159H104.355C110.298 19.2048 113.081 14.6054 117.406 1.24512H37.2383Z" fill="#FD6262" stroke="#FD6262"/>
<path d="M24.9297 31.8223C20.1178 31.8362 17.4237 35.7645 12.625 50.093H92.0465C97.989 49.7819 100.772 45.1826 105.097 31.8223H24.9297Z" fill="#FD6262" stroke="#FD6262"/>
<path d="M13.0001 62.397C8.18812 62.4109 5.49397 66.3392 0.695312 80.6677H80.1168C86.0593 80.3566 88.8425 75.7573 93.1673 62.397H13.0001Z" fill="#FD6262" stroke="#FD6262"/>
</svg>
